<?xml version="1.0" standalone="yes"?>
<svg height="225" width="225" xmlns="http://www.w3.org/2000/svg">
    <!--<path style="fill:#f9f9f9; stroke:none;" d="M0 0L0 225L225 225L225 0L0 0z"/>-->
    <path style="fill:#aacdc4; stroke:none;" d="M34 22L35 23L34 22z" />
    <path style="fill:#5cd260; stroke:none;" d="M35 22L36 23L35 22z" />
    <path style="fill:#26d72c; stroke:none;"
        d="M36 22.5293C29.1518 24.1124 24.1124 29.1517 22.5293 36C19.6256 48.5616 22 64.12 22 77C22 84.1308 21.1362 91.8677 25.6489 97.9568C29.032 102.522 34.4616 104.689 40 104.96C50.9473 105.496 62.0391 105 73 105C79.1034 105 86.03 105.89 92 104.468C97.8066 103.084 102.611 98.7581 104.351 93C105.838 88.0769 105 82.0908 105 77L105 47C105 40.7642 105.703 34.4564 101.891 29.0934C98.6312 24.507 93.4996 22.3099 88 22.0401C77.3843 21.5193 66.6289 22 56 22C49.5687 22 42.2969 21.0737 36 22.5293z" />
    <path style="fill:#aacdc4; stroke:none;"
        d="M92.6667 22.3333C92.2222 22.7778 93.2778 22.7222 93.3333 22.6667C93.7777 22.2222 92.7222 22.2778 92.6667 22.3333z" />
    <path style="fill:#eeafb6; stroke:none;" d="M132 22L133 23L132 22z" />
    <path style="fill:#eb5163; stroke:none;"
        d="M133 22.5324C127.193 23.9163 122.389 28.2419 120.649 34C119.162 38.923 120 44.9092 120 50L120 80C120 86.136 119.268 92.5903 122.97 97.9066C125.93 102.158 130.931 104.489 136 104.907C147.188 105.828 158.774 105 170 105C176.309 105 183.894 106.127 190 104.362C196.353 102.526 200.993 97.3933 202.471 91C205.374 78.4385 203 62.88 203 50C203 42.7818 203.985 35.1723 199.362 29.0432C196.174 24.8167 191.238 22.3436 186 22.0432C175.073 21.4165 163.946 22 153 22C146.589 22 139.268 21.0385 133 22.5324z" />
    <path style="fill:#5cd260; stroke:none;" d="M32 23L33 24L32 23z" />
    <path style="fill:#aacdc4; stroke:none;" d="M95 23L96 24L95 23z" />
    <path style="fill:#eeafb6; stroke:none;" d="M129 23L130 24L129 23M192 23L193 24L192 23z" />
    <path style="fill:#5cd260; stroke:none;" d="M30 24L31 25L30 24z" />
    <path style="fill:#aacdc4; stroke:none;" d="M97 24L98 25L97 24z" />
    <path style="fill:#eeafb6; stroke:none;" d="M127 24L128 25L127 24M194 24L195 25L194 24z" />
    <path style="fill:#aacdc4; stroke:none;" d="M28 25L29 26L28 25z" />
    <path style="fill:#5cd260; stroke:none;" d="M98 25L99 26L98 25z" />
    <path style="fill:#eeafb6; stroke:none;" d="M126 25L127 26L126 25z" />
    <path style="fill:#aacdc4; stroke:none;" d="M27 26L28 27L27 26z" />
    <path style="fill:#eeafb6; stroke:none;" d="M197 26L198 27L197 26z" />
    <path style="fill:#aacdc4; stroke:none;" d="M26 27L27 28L26 27z" />
    <path style="fill:#eeafb6; stroke:none;" d="M198 27L199 28L198 27z" />
    <path style="fill:#5cd260; stroke:none;" d="M101 28L102 29L101 28z" />
    <path style="fill:#eeafb6; stroke:none;" d="M123 28L124 29L123 28z" />
    <path style="fill:#aacdc4; stroke:none;" d="M102 29L103 30L102 29z" />
    <path style="fill:#eeafb6; stroke:none;" d="M122 29L123 30L122 29z" />
    <path style="fill:#5cd260; stroke:none;" d="M24 30L25 31L24 30z" />
    <path style="fill:#eeafb6; stroke:none;" d="M200 30L201 31L200 30z" />
    <path style="fill:#aacdc4; stroke:none;" d="M103 31L104 32L103 31z" />
    <path style="fill:#eeafb6; stroke:none;" d="M121 31L122 32L121 31z" />
    <path style="fill:#5cd260; stroke:none;" d="M23 32L24 33L23 32z" />
    <path style="fill:#eeafb6; stroke:none;" d="M201 32L202 33L201 32z" />
    <path style="fill:#aacdc4; stroke:none;" d="M104 33L105 34L104 33z" />
    <path style="fill:#eeafb6; stroke:none;" d="M120 33L121 34L120 33z" />
    <path style="fill:#aacdc4; stroke:none;"
        d="M22.3333 34.6667C22.2778 34.7222 22.2223 35.7777 22.6667 35.3333C22.7222 35.2778 22.7778 34.2222 22.3333 34.6667M105 36L105 91C106.769 86.7849 106 81.5355 106 77L106 51C106 46.1913 106.875 40.4688 105 36z" />
    <path style="fill:#eeafb6; stroke:none;"
        d="M119 36L119 91C120.875 86.5313 120 80.8087 120 76L120 50C120 45.4645 120.769 40.2151 119 36z" />
    <path style="fill:#5cd260; stroke:none;"
        d="M63 45C64.2484 45.6848 64.5484 45.7488 66 46C64.7517 45.3152 64.4515 45.2512 63 45z" />
    <path style="fill:#aacdc4; stroke:none;"
        d="M53 53C55.8603 49.7748 64.4945 43.54 67.3966 50.1489C68.6399 52.9802 68 56.9834 68 60L68 81C70.7006 74.5642 69.0005 64.9507 69 58C68.9998 55.2538 69.5242 51.7305 68.3966 49.1481C65.272 41.9921 54.5498 47.7771 53 53M149 56C151.523 52.0495 153.656 49.0332 158 47C152.42 45.7172 149.368 51.1322 149 56z" />
    <path style="fill:#f9f9f9; stroke:none;"
        d="M174 77C168.919 77 163.97 77.1832 159 76C165.175 70.3164 177.13 63.3002 173.254 53.0046C170.071 44.55 153.166 42.8762 150.752 52.9452C150.335 54.6831 151.238 56.2685 153.149 56.098C155.263 55.9094 156.988 54.1683 159 53.6034C163.002 52.4798 167.786 55.5004 165.914 60.0008C163.691 65.3441 157.163 68.9851 153.059 72.7539C150.94 74.6989 148.237 77.5136 149.623 80.6829C150.919 83.6489 155.404 82.9947 158 83C164.357 83.0131 173.355 85.2787 174 77z" />
    <path style="fill:#eeafb6; stroke:none;" d="M166 46L167 47L166 46z" />
    <path style="fill:#f9f9f9; stroke:none;"
        d="M54 54L61 54C61 60.9961 60.873 68.0053 61.0046 75C61.0525 77.5459 61.012 81.3823 64.0895 82.2484C67.8407 83.3042 67.9509 78.3519 67.9954 75.9992C68.1452 68.0723 69.1834 58.8737 67.8519 51.0586C66.5168 43.2233 54.9541 48.1548 54 54z" />
    <path style="fill:#5cd260; stroke:none;" d="M54 48L55 49L54 48z" />
    <path style="fill:#eeafb6; stroke:none;"
        d="M170 48L171 49L170 48M171 49L172 50L171 49M173 52L174 53L173 52M157 53L158 54L157 53z" />
    <path style="fill:#aacdc4; stroke:none;"
        d="M164 53L165 54L164 53M55 54C56.506 54.683 57.3148 54.8259 59 55C57.494 54.317 56.6852 54.1741 55 54z" />
    <path style="fill:#eeafb6; stroke:none;" d="M156 54L157 55L156 54z" />
    <path style="fill:#aacdc4; stroke:none;"
        d="M165 54L166 55L165 54M166 55L165 62C166.827 59.5884 167.15 57.8312 166 55z" />
    <path style="fill:#eeafb6; stroke:none;"
        d="M150 56L151 57L150 56M173.333 59.6667C173.278 59.7222 173.222 60.7778 173.667 60.3333C173.722 60.2777 173.778 59.2223 173.333 59.6667z" />
    <path style="fill:#aacdc4; stroke:none;"
        d="M164 62L165 63L164 62M163 63L164 64L163 63M162 64L163 65L162 64z" />
    <path style="fill:#eeafb6; stroke:none;" d="M171 64L172 65L171 64z" />
    <path style="fill:#aacdc4; stroke:none;"
        d="M161 65L162 66L161 65M159 66L159 68C160.635 67.4549 160.455 67.6352 161 66L159 66M157.667 68.3333C157.222 68.7778 158.278 68.7222 158.333 68.6667C158.778 68.2222 157.722 68.2777 157.667 68.3333z" />
    <path style="fill:#eeafb6; stroke:none;" d="M167 68L168 69L167 68z" />
    <path style="fill:#aacdc4; stroke:none;" d="M156 69L157 70L156 69z" />
    <path style="fill:#eeafb6; stroke:none;" d="M166 69L167 70L166 69z" />
    <path style="fill:#aacdc4; stroke:none;" d="M155 70L156 71L155 70z" />
    <path style="fill:#eeafb6; stroke:none;" d="M165 70L166 71L165 70z" />
    <path style="fill:#aacdc4; stroke:none;"
        d="M151 74C152.949 73.0643 153.55 72.6076 155 71C153.051 71.9357 152.45 72.3924 151 74z" />
    <path style="fill:#eeafb6; stroke:none;" d="M162 72L163 73L162 72M161 73L162 74L161 73z" />
    <path style="fill:#aacdc4; stroke:none;"
        d="M150 74L151 75L150 74M149 75L150 76L149 75M148 76C147.354 78.4578 147.354 79.5422 148 82C148.951 79.7147 148.951 78.2853 148 76M160 76C163.959 77.6611 168.737 77 173 77C169.041 75.3389 164.263 76 160 76z" />
    <path style="fill:#eeafb6; stroke:none;"
        d="M173 76L174 77L173 76M174 78L174 81C174.696 79.4463 174.696 79.5537 174 78z" />
    <path style="fill:#aacdc4; stroke:none;" d="M61 81L62 82L61 81M62 82L63 83L62 82z" />
    <path style="fill:#5cd260; stroke:none;" d="M67 82L68 83L67 82z" />
    <path style="fill:#eeafb6; stroke:none;" d="M149 82L150 83L149 82z" />
    <path style="fill:#5cd260; stroke:none;"
        d="M64.6667 83.3333C64.2222 83.7778 65.2778 83.7222 65.3333 83.6667C65.7778 83.2222 64.7222 83.2778 64.6667 83.3333z" />
    <path style="fill:#aacdc4; stroke:none;"
        d="M22.3333 91.6667C22.2778 91.7222 22.2222 92.7778 22.6667 92.3333C22.7222 92.2778 22.7778 91.2222 22.3333 91.6667z" />
    <path style="fill:#eeafb6; stroke:none;"
        d="M202.333 91.6667C202.278 91.7222 202.222 92.7778 202.667 92.3333C202.722 92.2778 202.778 91.2223 202.333 91.6667z" />
    <path style="fill:#aacdc4; stroke:none;" d="M104 93L105 94L104 93z" />
    <path style="fill:#5cd260; stroke:none;" d="M23 94L24 95L23 94z" />
    <path style="fill:#eeafb6; stroke:none;" d="M201 94L202 95L201 94z" />
    <path style="fill:#aacdc4; stroke:none;" d="M103 95L104 96L103 95z" />
    <path style="fill:#eeafb6; stroke:none;" d="M121 95L122 96L121 95z" />
    <path style="fill:#5cd260; stroke:none;" d="M24 96L25 97L24 96z" />
    <path style="fill:#eeafb6; stroke:none;" d="M200 96L201 97L200 96z" />
    <path style="fill:#aacdc4; stroke:none;" d="M102 97L103 98L102 97z" />
    <path style="fill:#eeafb6; stroke:none;" d="M122 97L123 98L122 97z" />
    <path style="fill:#5cd260; stroke:none;" d="M101 98L102 99L101 98z" />
    <path style="fill:#aacdc4; stroke:none;" d="M26 99L27 100L26 99z" />
    <path style="fill:#eeafb6; stroke:none;" d="M198 99L199 100L198 99z" />
    <path style="fill:#aacdc4; stroke:none;" d="M27 100L28 101L27 100z" />
    <path style="fill:#eeafb6; stroke:none;" d="M197 100L198 101L197 100z" />
    <path style="fill:#aacdc4; stroke:none;" d="M28 101L29 102L28 101z" />
    <path style="fill:#5cd260; stroke:none;" d="M98 101L99 102L98 101z" />
    <path style="fill:#eeafb6; stroke:none;" d="M126 101L127 102L126 101z" />
    <path style="fill:#5cd260; stroke:none;" d="M30 102L31 103L30 102z" />
    <path style="fill:#aacdc4; stroke:none;" d="M97 102L98 103L97 102z" />
    <path style="fill:#eeafb6; stroke:none;"
        d="M127 102L128 103L127 102M194 102L195 103L194 102z" />
    <path style="fill:#5cd260; stroke:none;" d="M32 103L33 104L32 103z" />
    <path style="fill:#aacdc4; stroke:none;" d="M95 103L96 104L95 103z" />
    <path style="fill:#eeafb6; stroke:none;"
        d="M129 103L130 104L129 103M192 103L193 104L192 103z" />
    <path style="fill:#aacdc4; stroke:none;" d="M34 104L35 105L34 104z" />
    <path style="fill:#5cd260; stroke:none;" d="M35 104L36 105L35 104M92 104L93 105L92 104z" />
    <path style="fill:#aacdc4; stroke:none;" d="M93 104L94 105L93 104z" />
    <path style="fill:#eeafb6; stroke:none;" d="M132 104L133 105L132 104z" />
    <path style="fill:#aacdc4; stroke:none;"
        d="M36 119C41.2165 121.189 48.3809 120 54 120L91 120C85.7835 117.811 78.6191 119 73 119L36 119M33.6667 120.333C33.2222 120.778 34.2778 120.722 34.3333 120.667C34.7778 120.222 33.7222 120.278 33.6667 120.333z" />
    <path style="fill:#51c5e5; stroke:none;"
        d="M35 120.533C29.3603 121.904 24.6075 126.456 22.9429 132C21.3291 137.375 22 143.457 22 149L22 178C22.0004 184.154 21.8423 190.728 25.652 195.96C29.1066 200.704 34.3454 202.512 40 202.91C50.8991 203.679 62.0738 203 73 203C79.4444 203 86.7568 203.932 93 202.057C98.1215 200.519 102.733 196.148 104.347 191C105.878 186.117 105 180.062 105 175L105 143C105 136.932 105.592 131.077 101.467 126.094C96.8098 120.469 90.7864 120.003 84 120L52 120C46.5242 120 40.3553 119.232 35 120.533z" />
    <path style="fill:#eeafb6; stroke:none;" d="M131 120L132 121L131 120z" />
    <path style="fill:#f1ad30; stroke:none;"
        d="M132 120.558C126.511 121.998 121.998 126.511 120.558 132C119.321 136.711 120 142.169 120 147L120 176C120 182.274 118.87 189.562 122.653 194.996C128.166 202.915 136.271 203 145 203L173 203C178.594 203 184.551 203.574 190 202.072C196.948 200.156 201.21 194.994 202.532 188C204.975 175.081 203 160.138 203 147C203 140.327 203.87 132.666 199.57 127.015C193.907 119.574 186.431 120 178 120L149 120C143.561 120 137.3 119.167 132 120.558z" />
    <path style="fill:#aacdc4; stroke:none;" d="M31 121L32 122L31 121z" />
    <path style="fill:#eeafb6; stroke:none;" d="M193 121L194 122L193 121z" />
    <path style="fill:#aacdc4; stroke:none;" d="M97 122L98 123L97 122z" />
    <path style="fill:#eeafb6; stroke:none;" d="M127 122L128 123L127 122z" />
    <path style="fill:#aacdc4; stroke:none;" d="M28 123L29 124L28 123z" />
    <path style="fill:#eeafb6; stroke:none;" d="M196 123L197 124L196 123z" />
    <path style="fill:#aacdc4; stroke:none;" d="M27 124L28 125L27 124z" />
    <path style="fill:#eeafb6; stroke:none;" d="M197 124L198 125L197 124z" />
    <path style="fill:#aacdc4; stroke:none;" d="M26 125L27 126L26 125z" />
    <path style="fill:#eeafb6; stroke:none;" d="M198 125L199 126L198 125z" />
    <path style="fill:#aacdc4; stroke:none;" d="M102 127L103 128L102 127z" />
    <path style="fill:#eeafb6; stroke:none;"
        d="M122 127L123 128L122 127M120 131L121 132L120 131z" />
    <path style="fill:#aacdc4; stroke:none;"
        d="M22.3333 132.667C22.2778 132.722 22.2222 133.778 22.6667 133.333C22.7222 133.278 22.7778 132.222 22.3333 132.667z" />
    <path style="fill:#eeafb6; stroke:none;"
        d="M202.333 132.667C202.278 132.722 202.222 133.778 202.667 133.333C202.722 133.278 202.778 132.222 202.333 132.667z" />
    <path style="fill:#aacdc4; stroke:none;"
        d="M105 134L105 187C106.661 183.041 106 178.26 106 174L106 149C106 144.191 106.875 138.469 105 134M53 142C51.4904 145.224 51.4793 146.447 54 149C53.24 146.571 53.1687 144.499 53 142z" />
    <path style="fill:#f9f9f9; stroke:none;"
        d="M66 149C63.706 151.493 55.6439 158.603 60.3372 161.973C63.038 163.912 68.2632 162.558 68.9398 167.039C70.494 177.333 53.303 166.393 51.7515 171.434C50.489 175.536 57.054 178.2 60 178.736C69.8001 180.521 82.6701 169.919 73.5679 160.419C71.7951 158.569 69.3414 157.821 67 157C68.6601 155.339 70.3845 153.713 71.966 151.975C73.6662 150.107 76.4315 147.254 75.338 144.434C74.6531 142.667 72.6337 142.302 70.9807 142.109C66.7436 141.614 59.104 140.849 55.1528 142.603C48.5736 145.525 56.7859 148.934 59.9954 148.995C61.9954 149.034 63.9997 149 66 149z" />
    <path style="fill:#aacdc4; stroke:none;" d="M74 142L75 143L74 142z" />
    <path style="fill:#eeafb6; stroke:none;"
        d="M165 142C166.248 142.685 166.548 142.749 168 143C166.752 142.315 166.452 142.251 165 142z" />
    <path style="fill:#aacdc4; stroke:none;"
        d="M163 143C161.814 144.186 161.472 144.584 161 146C162.548 144.738 162.808 144.806 163 143z" />
    <path style="fill:#f9f9f9; stroke:none;"
        d="M170 165C170 160.003 170.09 154.997 169.995 150.001C169.959 148.089 170.166 145.328 168.397 144.047C165.969 142.29 163.019 144.489 161.285 146.148C156.471 150.757 151.568 156.558 147.723 162C146.441 163.815 144.768 166.346 145.661 168.682C147.554 173.633 157.902 169.524 161.683 172.028C164.067 173.606 163.774 179.364 167.08 179.364C170.009 179.364 169.877 175.093 171.019 173.298C173.567 169.29 177.935 166.266 170 165z" />
    <path style="fill:#eeafb6; stroke:none;" d="M169 143L170 144L169 143z" />
    <path style="fill:#aacdc4; stroke:none;"
        d="M76.3333 145.667C76.2778 145.722 76.2222 146.778 76.6667 146.333C76.7222 146.278 76.7778 145.222 76.3333 145.667z" />
    <path style="fill:#eeafb6; stroke:none;"
        d="M170 145L170 165C172.087 160.027 172.087 149.973 170 145M160 146L161 147L160 146z" />
    <path style="fill:#aacdc4; stroke:none;"
        d="M75 148L76 149L75 148M159 148L160 149L159 148M65 149L66 150L65 149M74 149L75 150L74 149M158 149L159 150L158 149M64 150L65 151L64 150M73 150L74 151L73 150M157 150L158 151L157 150M63 151L64 152L63 151M72 151L73 152L72 151M156 151L157 152L156 151M62 152L63 153L62 152M71 152L72 153L71 152M155 152L156 153L155 152M61 153C58.7307 155.672 57.522 157.533 57 161C58.9623 158.551 61.1175 156.16 61 153M70 153L71 154L70 153z" />
    <path style="fill:#eeafb6; stroke:none;" d="M154 153L155 154L154 153z" />
    <path style="fill:#f1ad30; stroke:none;"
        d="M162 154C159.106 157.557 155.932 160.833 154 165L163 165C163 161.3 163.44 157.432 162 154z" />
    <path style="fill:#aacdc4; stroke:none;"
        d="M163 154L163 165C164.431 161.59 164.431 157.41 163 154M153 155L154 156L153 155M152 156L153 157L152 156M68.6667 157.333C68.2222 157.778 69.2778 157.722 69.3333 157.667C69.7778 157.222 68.7222 157.278 68.6667 157.333M151 157L152 158L151 157z" />
    <path style="fill:#eeafb6; stroke:none;" d="M159 157L160 158L159 157z" />
    <path style="fill:#aacdc4; stroke:none;"
        d="M71 158L72 159L71 158M150 158L151 159L150 158M149 159L150 160L149 159z" />
    <path style="fill:#eeafb6; stroke:none;" d="M148 160L149 161L148 160z" />
    <path style="fill:#aacdc4; stroke:none;"
        d="M75 162L76 163L75 162M147 162L148 163L147 162M66.6667 163.333C66.2222 163.778 67.2778 163.722 67.3333 163.667C67.7778 163.222 66.7222 163.278 66.6667 163.333M146 163L147 164L146 163M68 164L69 165L68 164M145 164L146 165L145 164z" />
    <path style="fill:#eeafb6; stroke:none;" d="M153 164L154 165L153 164z" />
    <path style="fill:#aacdc4; stroke:none;"
        d="M76 165L76 170C76.8299 167.97 76.8299 167.03 76 165M144 165L144 170C144.83 167.97 144.83 167.03 144 165M69 166L69 170C69.7102 168.241 69.7102 167.759 69 166M53.6667 168.333C53.2222 168.778 54.2778 168.722 54.3333 168.667C54.7778 168.222 53.7222 168.278 53.6667 168.333M51.6667 169.333C51.2222 169.778 52.2778 169.722 52.3333 169.667C52.7778 169.222 51.7222 169.278 51.6667 169.333M50 170L50 174C50.7102 172.241 50.7102 171.759 50 170M57 170L58 171L57 170M68 170L69 171L68 170M145 170L146 171L145 170M66.6667 171.333C66.2222 171.778 67.2778 171.722 67.3333 171.667C67.7778 171.222 66.7222 171.278 66.6667 171.333z" />
    <path style="fill:#eeafb6; stroke:none;"
        d="M146 171C150.974 173.087 157.638 172 163 172C158.026 169.913 151.362 171 146 171M171 171C172.248 171.685 172.548 171.749 174 172C172.752 171.315 172.452 171.251 171 171z" />
    <path style="fill:#aacdc4; stroke:none;"
        d="M75 172L76 173L75 172M163 172L163 178C163.951 175.715 163.951 174.285 163 172z" />
    <path style="fill:#eeafb6; stroke:none;"
        d="M170 172L170 177C170.83 174.97 170.83 174.03 170 172z" />
    <path style="fill:#aacdc4; stroke:none;"
        d="M74 174L75 175L74 174M52 175L53 176L52 175M73 175L74 176L73 175M53 176L54 177L53 176M72 176L73 177L72 176M55.6667 177.333C55.2222 177.778 56.2778 177.722 56.3333 177.667C56.7778 177.222 55.7222 177.278 55.6667 177.333M164 178L165 179L164 178M61 179C62.7691 179.779 64.0359 179.912 66 180C64.231 179.221 62.9641 179.088 61 179M22 188L22 191C22.6961 189.446 22.6961 189.554 22 188z" />
    <path style="fill:#eeafb6; stroke:none;"
        d="M202.333 188.667C202.278 188.722 202.222 189.778 202.667 189.333C202.722 189.278 202.778 188.222 202.333 188.667M201 192L202 193L201 192z" />
    <path style="fill:#aacdc4; stroke:none;" d="M103 193L104 194L103 193z" />
    <path style="fill:#eeafb6; stroke:none;" d="M121 193L122 194L121 193z" />
    <path style="fill:#aacdc4; stroke:none;" d="M24 194L25 195L24 194z" />
    <path style="fill:#eeafb6; stroke:none;" d="M200 194L201 195L200 194z" />
    <path style="fill:#aacdc4; stroke:none;" d="M101 196L102 197L101 196z" />
    <path style="fill:#eeafb6; stroke:none;" d="M123 196L124 197L123 196z" />
    <path style="fill:#aacdc4; stroke:none;" d="M100 197L101 198L100 197z" />
    <path style="fill:#eeafb6; stroke:none;" d="M124 197L125 198L124 197z" />
    <path style="fill:#aacdc4; stroke:none;" d="M99 198L100 199L99 198z" />
    <path style="fill:#eeafb6; stroke:none;" d="M125 198L126 199L125 198z" />
    <path style="fill:#aacdc4; stroke:none;" d="M98 199L99 200L98 199M30 200L31 201L30 200z" />
    <path style="fill:#eeafb6; stroke:none;"
        d="M194 200L195 201L194 200M192 201L193 202L192 201z" />
    <path style="fill:#aacdc4; stroke:none;"
        d="M34 202C35.2483 202.685 35.5484 202.749 37 203C35.7516 202.315 35.4516 202.251 34 202M91.6667 202.333C91.2222 202.778 92.2778 202.722 92.3333 202.667C92.7778 202.222 91.7222 202.278 91.6667 202.333z" />
    <path style="fill:#eeafb6; stroke:none;"
        d="M132.667 202.333C132.222 202.778 133.278 202.722 133.333 202.667C133.778 202.222 132.722 202.278 132.667 202.333M188.667 202.333C188.222 202.778 189.278 202.722 189.333 202.667C189.778 202.222 188.722 202.278 188.667 202.333z" />
</svg>
